<svg xmlns="http://www.w3.org/2000/svg" width="43" height="27" viewBox="0 0 43 27"><g><g><path fill="#c7202e" d="M41.396 19.366h-9.64l-.032-.127a10.989 10.989 0 0 0-2.526-4.635l-.118-.128.132-.114a7.397 7.397 0 0 1 4.765-1.793h.103a7.381 7.381 0 0 1 7.296 6.61zm-10.346 3.2a3.322 3.322 0 0 1-3.319 3.318h-13.12a3.322 3.322 0 0 1-3.319-3.318v-.576a9.83 9.83 0 0 1 2.8-6.887 9.82 9.82 0 0 1 6.786-2.992h.01l.01.001a3.2 3.2 0 0 0 .545 0h.02a9.82 9.82 0 0 1 6.787 2.991 9.83 9.83 0 0 1 2.8 6.887zm-20.465-3.2H1.014l.02-.187a7.381 7.381 0 0 1 7.294-6.61h.103a7.36 7.36 0 0 1 4.723 1.758l.134.115-.12.13a10.968 10.968 0 0 0-2.55 4.667zM4.681 7.853c0-2.04 1.66-3.699 3.7-3.699 2.039 0 3.698 1.66 3.698 3.7 0 1.995-1.627 3.654-3.627 3.699h-.14a3.715 3.715 0 0 1-3.631-3.7zm11.479-1.76a5.009 5.009 0 0 1 5.002-5.003 5.009 5.009 0 0 1 5.003 5.003c0 2.65-2.07 4.844-4.714 4.994h-.578a5.003 5.003 0 0 1-4.713-4.994zm14.17 1.76c0-2.04 1.66-3.699 3.7-3.699s3.699 1.66 3.699 3.7c0 1.995-1.628 3.654-3.628 3.699h-.14a3.715 3.715 0 0 1-3.63-3.7zm6.446 4.165l-.313-.109.271-.19a4.722 4.722 0 0 0 2.01-3.857 4.72 4.72 0 0 0-4.715-4.715 4.72 4.72 0 0 0-4.715 4.715c0 1.536.752 2.978 2.01 3.857l.273.19-.314.108a8.248 8.248 0 0 0-2.829 1.66l-.11.098-.113-.096a10.709 10.709 0 0 0-3.9-2.125l-.366-.11.326-.197a6.065 6.065 0 0 0 2.907-5.154c0-3.32-2.7-6.02-6.019-6.02a6.026 6.026 0 0 0-6.018 6.02 6.052 6.052 0 0 0 2.906 5.154l.326.197-.364.11a10.81 10.81 0 0 0-3.86 2.1l-.111.094-.11-.096a8.329 8.329 0 0 0-2.796-1.626l-.313-.108.271-.19a4.722 4.722 0 0 0 2.01-3.858 4.72 4.72 0 0 0-4.715-4.715A4.72 4.72 0 0 0 3.69 7.87c0 1.537.752 2.979 2.01 3.857l.273.19-.314.109a8.404 8.404 0 0 0-5.66 7.941v.423h10.41l-.024.191c-.06.478-.092.952-.092 1.41v.575a4.34 4.34 0 0 0 4.334 4.334h13.121a4.34 4.34 0 0 0 4.335-4.334v-.576c0-.456-.031-.93-.092-1.41l-.024-.19h10.477v-.423c-.016-3.59-2.294-6.785-5.668-7.95z"/></g></g></svg>