<svg xmlns="http://www.w3.org/2000/svg" width="23" height="23" viewBox="0 0 23 23"><g><g><g opacity="1"><path fill="#119dde" d="M18.713 19.16zm0-2.461a4.871 4.871 0 0 0-4.865-4.866h-5.24A4.871 4.871 0 0 0 3.743 16.7v2.461c-4.031-4.114-3.986-10.71.1-14.77C7.93.333 14.526.333 18.613 4.39c4.086 4.06 4.131 10.656.1 14.77zm-8.387 5.574h-.027c-.29-.026-.58-.065-.866-.115l-.05-.008c-.279-.05-.556-.112-.83-.184l-.067-.017a10.442 10.442 0 0 1-.793-.25l-.081-.03a10.28 10.28 0 0 1-.754-.312l-.092-.042a9.472 9.472 0 0 1-.714-.371l-.099-.056a10.61 10.61 0 0 1-.673-.43l-.1-.068a10.522 10.522 0 0 1-.632-.487l-.057-.05v-3.155a4.122 4.122 0 0 1 4.117-4.116h5.24a4.122 4.122 0 0 1 4.117 4.116v3.156l-.05.042c-.21.174-.424.34-.645.496l-.088.06c-.222.154-.45.3-.684.437l-.088.05a10.122 10.122 0 0 1-1.568.729l-.075.027a10.52 10.52 0 0 1-.797.251l-.064.016a10.54 10.54 0 0 1-.832.186l-.049.007c-.286.05-.576.09-.867.115h-.026a10.495 10.495 0 0 1-1.806.003zM11.228.605C5.027.605 0 5.632 0 11.833s5.027 11.228 11.228 11.228a11.282 11.282 0 0 0 1.938-.17l.118-.02A11.228 11.228 0 0 0 11.228.605z"/></g><g opacity="1"><path fill="#119dde" d="M11.228 10.336a2.994 2.994 0 1 1 0-5.988 2.994 2.994 0 0 1 0 5.988zm0-6.737a3.743 3.743 0 1 0 0 7.486 3.743 3.743 0 0 0 0-7.486z"/></g></g></g></svg>