<svg xmlns="http://www.w3.org/2000/svg" width="19" height="25" viewBox="0 0 19 25"><g><g><g opacity="1"><path fill="#fff" d="M8.734 17.04a.723.723 0 0 0 1.023 0l3.098-3.098a.723.723 0 1 0-1.022-1.023l-1.864 1.864V9.557a.723.723 0 0 0-1.447 0v5.226L6.658 12.92a.723.723 0 1 0-1.023 1.023z"/></g><g opacity="1"><path fill="#fff" d="M12.344 18.905H6.146a.723.723 0 0 0 0 1.447h6.198a.723.723 0 0 0 0-1.447z"/></g><g opacity="1"><path fill="#fff" d="M17.044 22.727c0 .45-.364.826-.826.826H2.273a.827.827 0 0 1-.826-.826V7.182h3.15a2.275 2.275 0 0 0 2.272-2.273v-3.15h9.349c.45 0 .826.363.826.826zM5.423 2.007v2.902c0 .455-.37.826-.826.826H1.695zM16.218.312H5.37a.723.723 0 0 0-.51.212L.21 5.172A.723.723 0 0 0 0 5.683v17.044A2.275 2.275 0 0 0 2.273 25h13.945c1.25 0 2.272-1.01 2.272-2.273V2.585c0-1.25-1.01-2.273-2.272-2.273z"/></g></g></g></svg>