<svg xmlns="http://www.w3.org/2000/svg" width="72" height="70" viewBox="0 0 72 70"><g><g opacity="1"><g><g opacity="1"><g><path fill="#19aeee" d="M23.793 22.727l-.837-.483c-2.804-1.62-6.31.402-6.31 3.643v.967h-5.06v-.967c0-3.238-3.503-5.264-6.31-3.643l-.837.483-2.53-4.382.837-.483c2.805-1.62 2.808-5.667 0-7.288l-.837-.483 2.53-4.382.837.483c2.805 1.62 6.31-.402 6.31-3.643v-.967h5.06v.967c0 3.238 3.503 5.264 6.31 3.643l.837-.483 2.53 4.382-.837.483c-2.804 1.62-2.807 5.667 0 7.288l.837.483zm4.095-5.415l-1.564-.903c-1.686-.974-1.687-3.408 0-4.382l1.564-.903a.839.839 0 0 0 .307-1.145l-3.368-5.835a.84.84 0 0 0-1.146-.307l-1.564.903c-1.686.973-3.794-.242-3.794-2.191V.743a.839.839 0 0 0-.839-.838h-6.736a.839.839 0 0 0-.839.838V2.55c0 1.947-2.106 3.165-3.794 2.19l-1.563-.902a.839.839 0 0 0-1.146.307L.037 9.98a.839.839 0 0 0 .307 1.145l1.564.903c1.686.974 1.688 3.408 0 4.382l-1.563.903a.839.839 0 0 0-.308 1.145l3.369 5.835c.231.4.744.539 1.146.307l1.563-.903c1.686-.973 3.794.242 3.794 2.191v1.806c0 .463.375.838.839.838h6.736a.838.838 0 0 0 .839-.838v-1.806c0-1.946 2.106-3.165 3.794-2.19l1.564.902c.4.231.914.094 1.145-.307l3.369-5.835a.839.839 0 0 0-.307-1.145z"/></g></g><g opacity="1"><path fill="#19aeee" d="M14.116 18.411a4.198 4.198 0 0 1-4.193-4.193 4.198 4.198 0 0 1 4.193-4.193 4.198 4.198 0 0 1 4.193 4.193 4.198 4.198 0 0 1-4.193 4.193zm0-10.064a5.877 5.877 0 0 0-5.87 5.871 5.877 5.877 0 0 0 5.87 5.87 5.877 5.877 0 0 0 5.87-5.87 5.877 5.877 0 0 0-5.87-5.87z"/></g></g><g><g opacity="1"><path fill="#fff" d="M32.155 25.335a8.388 8.388 0 0 1 8.388-8.388 8.388 8.388 0 0 1 8.389 8.388 8.388 8.388 0 0 1-8.389 8.389 8.398 8.398 0 0 1-8.388-8.389zm-2.097 0c0 5.791 4.694 10.486 10.485 10.486 5.791 0 10.486-4.695 10.486-10.486 0-5.79-4.695-10.485-10.486-10.485-5.788.006-10.479 4.697-10.485 10.485z"/></g><g opacity="1"><g><path fill="#fff" d="M59.417 60.39l-.158.138c-.575.477-1.166.933-1.771 1.362l-.28.193c-.617.425-1.245.828-1.888 1.203a73.94 73.94 0 0 0-.278.156c-.653.373-1.319.727-1.998 1.042-.086.04-.172.077-.258.116-.693.319-1.396.614-2.113.877-.076.028-.152.052-.228.08-.73.261-1.472.497-2.221.7l-.186.048c-.768.204-1.544.378-2.329.518l-.137.022c-.802.14-1.612.249-2.427.32h-.075a29.48 29.48 0 0 1-2.532.105c-.85 0-1.688-.04-2.527-.111h-.074a29.175 29.175 0 0 1-2.43-.322l-.135-.021a29.512 29.512 0 0 1-2.332-.52l-.18-.044a29.44 29.44 0 0 1-2.233-.706c-.066-.025-.138-.048-.21-.075a28.918 28.918 0 0 1-2.13-.884 6.766 6.766 0 0 1-.237-.104 28.383 28.383 0 0 1-2.025-1.055c-.082-.047-.166-.092-.247-.14a29.29 29.29 0 0 1-1.917-1.224c-.082-.056-.165-.11-.247-.168-.617-.437-1.219-.9-1.805-1.39l-.14-.116V51.55c.008-6.367 5.168-11.526 11.535-11.534h14.679c6.367.008 11.526 5.167 11.534 11.534zM40.543 6.461a31.389 31.389 0 0 0-9.77 1.556 1.039 1.039 0 1 0 .648 1.971c10.143-3.307 21.73-.949 29.811 7.078 11.45 11.372 11.575 29.852.282 41.378V51.55c-.009-7.525-6.107-13.622-13.631-13.631h-14.68c-7.524.009-13.622 6.106-13.63 13.63v6.897c-7.112-7.258-9.695-17.273-7.775-26.534a1.026 1.026 0 0 0-.894-1.228l-.021-.003a1.029 1.029 0 0 0-1.123.807 31.642 31.642 0 0 0-.53 3.539C7.736 51.206 18.811 65.86 34.784 68.84l.33.058c.859.15 1.724.27 2.598.348.94.085 1.883.127 2.831.127 17.387 0 31.517-14.182 31.456-31.57-.06-17.32-14.121-31.342-31.456-31.342z"/></g></g></g></g></g></svg>