<svg xmlns="http://www.w3.org/2000/svg" width="67" height="67" viewBox="0 0 67 67"><g><g opacity="1"><g><path fill="#fc9d31" d="M33.079 63.952c-17.051 0-30.874-13.822-30.874-30.873 0-17.051 13.823-30.874 30.874-30.874 17.05 0 30.873 13.823 30.873 30.874-.019 17.043-13.83 30.854-30.873 30.873zm0-63.952C14.81 0 0 14.81 0 33.079s14.81 33.079 33.079 33.079 33.079-14.81 33.079-33.08C66.138 14.819 51.338.02 33.078 0z"/></g><g><path fill="#fff" d="M33.079 26.463c-.61 0-1.103.494-1.103 1.103v22.052a1.103 1.103 0 0 0 2.205 0V27.566c0-.61-.493-1.103-1.102-1.103z"/></g><g><path fill="#fff" d="M33.079 19.847a1.103 1.103 0 1 1 0-2.205 1.103 1.103 0 0 1 0 2.205zm0-4.41a3.308 3.308 0 1 0 0 6.616 3.308 3.308 0 0 0 0-6.616z"/></g></g></g></svg>