<svg xmlns="http://www.w3.org/2000/svg" width="134" height="45" viewBox="0 0 134 45"><g><g opacity="1"><g><path fill="#252e67" d="M59.802 20.884c.44.068.811.203 1.115.372.304.169.54.405.71.71.168.304.236.675.236 1.114-.034.913-.338 1.554-.98 1.892-.642.338-1.588.507-2.838.507h-1.148l.033-4.662c.203 0 .406-.034.676-.034.27-.034.507-.034.777-.034.507 0 .98.034 1.42.135zm-1.655-3.243c-.676 0-1.453.034-2.365.068-.879.033-1.723.168-2.5.304l-.068 15.879 3.615.033.034-5.405h1.149c2.398.034 4.256-.406 5.574-1.25 1.284-.845 1.96-2.264 1.96-4.19.033-1.925-.642-3.31-1.892-4.155-1.25-.845-3.109-1.284-5.507-1.284z"/></g><g><path fill="#252e67" d="M73.147 21.56zm0 0c.068.237.203.54.338.946.169.406.338.845.54 1.385.203.54.406 1.115.643 1.757.236.642.473 1.284.71 1.993l-4.596-.033c.27-.71.54-1.352.777-1.994.237-.608.473-1.182.676-1.723.203-.507.372-.98.54-1.385.17-.405.305-.71.372-.946zm8.176 12.534a152.284 152.284 0 0 0-1.689-4.83c-.54-1.454-1.081-2.839-1.588-4.156a105.118 105.118 0 0 0-1.52-3.717 81.356 81.356 0 0 0-1.554-3.446l-3.446-.034c-.541 1.115-1.082 2.23-1.588 3.413-.507 1.148-1.014 2.398-1.554 3.682a134.883 134.883 0 0 0-1.622 4.156c-.574 1.453-1.149 3.074-1.757 4.797l3.75.034c.17-.574.372-1.149.575-1.723.202-.574.405-1.183.608-1.757l6.284.034c.202.574.405 1.182.608 1.757.203.574.405 1.148.574 1.723z"/></g><g><path fill="#252e67" d="M87.067 20.918c.236-.034.473-.067.743-.067h.777c1.79 0 3.108.439 3.953 1.317.845.879 1.25 2.162 1.25 3.852 0 1.621-.44 2.871-1.318 3.784-.912.912-2.23 1.351-4.054 1.351h-.81c-.237 0-.44-.034-.609-.034zm10.44 5.17c.033-1.487-.203-2.737-.676-3.717-.44-1.047-1.048-1.892-1.859-2.568-.777-.675-1.756-1.182-2.871-1.486-1.115-.304-2.365-.473-3.75-.473-.642 0-1.42.034-2.332.067-.878.068-1.756.17-2.601.304l-.068 15.677c.845.169 1.69.27 2.568.338.845.067 1.622.1 2.264.1 1.419 0 2.703-.168 3.851-.506 1.149-.338 2.129-.845 2.94-1.52.81-.676 1.418-1.52 1.858-2.568.439-1.047.675-2.264.675-3.649z"/></g><g><path fill="#252e67" d="M107.54 16.053c.338-.304.541-.777.541-1.318 0-.54-.169-.98-.54-1.317-.372-.338-.778-.507-1.284-.507-.473 0-.912.135-1.284.473-.338.304-.54.743-.54 1.318 0 .54.168.98.54 1.317.372.338.777.507 1.284.507.506 0 .912-.169 1.284-.473zm4.393 18.176v-3.04l-7.77-.034.033-3.885 6.453.034V24.33l-6.453-.033V21.12l7.264.034v-3.041l-10.88-.068-.067 16.116z"/></g><g><path fill="#252e67" d="M124.062 34.263a30.31 30.31 0 0 0-1.15-1.689 54.764 54.764 0 0 0-1.418-1.858 39.949 39.949 0 0 0-1.588-1.79 16.913 16.913 0 0 0-1.655-1.521l-.034 6.825-3.615-.034.067-16.116 3.615.034-.033 6.047c.946-.98 1.891-1.993 2.871-3.04s1.858-2.061 2.67-2.973l4.29.034c-1.115 1.283-2.196 2.533-3.31 3.75a172.46 172.46 0 0 1-3.515 3.615 26.981 26.981 0 0 1 3.717 3.851 46.271 46.271 0 0 1 3.412 4.899z"/></g><g><path fill="#252e67" d="M133.86 22.37c0 1.251-.068 2.433-.17 3.515a58.93 58.93 0 0 1-.405 3.31h-2.635c-.135-1.114-.27-2.23-.372-3.31-.101-1.082-.135-2.264-.135-3.514l.034-4.156 3.682.034zm.236 10.103c0 .675-.237 1.216-.676 1.588-.44.371-.946.54-1.486.54-.575 0-1.048-.203-1.487-.574-.44-.372-.642-.912-.642-1.588s.237-1.216.676-1.588c.439-.372.946-.54 1.486-.54.575 0 1.048.202 1.487.574.44.405.642.912.642 1.588z"/></g></g><g opacity="1"><path fill="#c7202e" d="M41.083 3.48c-1.824-.439-3.615.54-4.56 2.467-.102.202-.44.202-.541 0-1.183-2.365-3.176-2.838-4.561-2.534-1.588.371-2.602 1.723-2.602 3.446-.034 3.716 6.25 8.514 7.4 9.325 1.148-.811 7.466-5.541 7.466-9.258 0-1.689-1.014-3.074-2.602-3.446z"/></g><g opacity="1"><g><path fill="#252e67" d="M33.076 24.934l-.946-.777a2.239 2.239 0 0 0-3.21.338l-1.925 2.804.236-16.589c0-1.216-.98-2.263-2.23-2.297h-1.25c-.608 0-1.148.236-1.588.642-.439.405-.675 1.013-.675 1.622l-.068 5h-.169l-1.216-.034a2.309 2.309 0 0 0-2.297 2.23v.169h-1.386c-.608 0-1.182.236-1.587.642-.44.405-.676 1.013-.676 1.621v.17h-.17l-1.215-.035a2.31 2.31 0 0 0-2.298 2.23l-.034 3.142c-.033 2.636.237 5.136.811 7.365.135.541.744.913 1.284.777a1.02 1.02 0 0 0 .642-.473c.135-.236.203-.54.101-.81-.54-2.061-.777-4.359-.743-6.825l.034-3.142c0-.068.067-.135.169-.135l1.216.034c.068 0 .135.067.135.135l-.034 2.432c0 .27.102.54.304.744a1.053 1.053 0 0 0 1.79-.743l.069-4.832c0-.034 0-.068.033-.101.034-.034.068-.034.102-.034H17.5c.068 0 .135.067.135.169l-.034 3.649c0 .27.102.54.305.743a1.053 1.053 0 0 0 1.79-.743l.068-6.048c0-.067.067-.135.169-.135l1.216.034c.101 0 .169.067.169.135l-.068 6.081c0 .27.102.54.304.744a1.053 1.053 0 0 0 1.79-.743l.17-13.312c0-.135.135-.135.169-.135H24.9c.068 0 .169.101.169.169l-.237 17.636c0 .777.507 1.486 1.25 1.723a1.715 1.715 0 0 0 1.96-.676l2.5-3.581c.034-.068.135-.068.237 0l.946.777s.033.033.033.101c0 .034 0 .068-.067.169l-3.717 5.372c-.168.236-.202.507-.168.777.067.27.202.507.439.676.169.135.371.168.574.202.068 0 .135 0 .203-.033.27-.068.507-.203.676-.44l3.682-5.405c.372-.44.54-1.014.507-1.622a2.345 2.345 0 0 0-.81-1.554z"/></g><g><path fill="#252e67" d="M22.299 44.8C9.933 44.732-.067 34.63 0 22.265.068 9.9 10.17-.101 22.535-.033c1.352 0 2.703.135 4.088.405a1.282 1.282 0 0 1 1.014 1.453 1.282 1.282 0 0 1-1.453 1.013c-1.216-.236-2.433-.337-3.615-.371-10.98-.068-19.967 8.818-20.035 19.832-.067 11.014 8.818 19.967 19.832 20.034 11.014.068 19.967-8.818 20.035-19.832a19.7 19.7 0 0 0-.44-4.223 1.267 1.267 0 0 1 .98-1.486 1.267 1.267 0 0 1 1.487.98 20.54 20.54 0 0 1 .473 4.763C44.766 34.867 34.664 44.867 22.299 44.8z"/></g></g></g></svg>