<svg xmlns="http://www.w3.org/2000/svg" width="14" height="11" viewBox="0 0 14 11"><g><g><path fill="#fff" d="M4.978 6.381C1.36 3.756 1.085 3.524.251 2.872A.656.656 0 0 1 0 2.357V1.84C0 1.117.586.531 1.309.531H12.65c.722 0 1.309.586 1.309 1.308v.518a.652.652 0 0 1-.251.515c-.834.655-1.11.884-4.728 3.51-.458.332-1.368 1.139-2 1.128-.633.01-1.544-.796-2.002-1.129zm8.716-2.394a.164.164 0 0 1 .265.129V9.69c0 .722-.587 1.308-1.309 1.308H1.309A1.309 1.309 0 0 1 0 9.691V4.118c0-.136.155-.212.264-.128.611.475 1.42 1.077 4.202 3.097.575.42 1.545 1.303 2.513 1.298.974.008 1.963-.894 2.517-1.298 2.78-2.02 3.587-2.625 4.198-3.1z"/></g></g></svg>