<svg xmlns="http://www.w3.org/2000/svg" width="67" height="70" viewBox="0 0 67 70"><g><g opacity="1"><g><g opacity="1"><g><path fill="#fc9d31" d="M51.355.943L37.308 14.989a.936.936 0 1 0 1.325 1.324L51.08 3.865v29.14a.936.936 0 1 0 1.873 0V3.865l12.448 12.448a.936.936 0 1 0 1.324-1.324L52.679.943a.936.936 0 0 0-1.324 0z"/></g></g></g><g><path fill="#fefefe" d="M39.381 46.139a1.033 1.033 0 1 0-1.712-1.158c-1.58 2.338-3.883 3.679-6.318 3.679-3.694 0-6.83-3.046-7.886-7.233h8.92a1.033 1.033 0 0 0 0-2.067h-9.26a13.23 13.23 0 0 1 0-2.066h9.26a1.033 1.033 0 0 0 0-2.067h-8.92c1.056-4.188 4.191-7.233 7.886-7.233 2.468 0 4.79 1.37 6.371 3.758a1.033 1.033 0 0 0 1.724-1.14c-1.971-2.977-4.922-4.685-8.095-4.685-4.806 0-8.856 3.958-10.006 9.3h-1.36a1.033 1.033 0 0 0 0 2.067h1.069a15.018 15.018 0 0 0 0 2.066h-1.07a1.033 1.033 0 0 0 0 2.067h1.36c1.15 5.342 5.2 9.3 10.007 9.3 3.133 0 6.06-1.673 8.03-4.588z"/></g><g><path fill="#fefefe" d="M57.094 24.104c-.162.31-.165.68-.006.99 4.141 8.063 4.442 17.944-.061 26.597C49.65 65.865 32.18 71.376 18.005 64 3.831 56.624-1.68 39.153 5.696 24.979 11.885 13.086 25.178 7.294 37.67 10.093a1.085 1.085 0 0 0 1.276-1.382l-.007-.022a1.089 1.089 0 0 0-.803-.734C24.812 4.99 10.634 11.14 3.979 23.802l-.116.222C-4.059 39.202 1.823 57.927 17 65.85c15.177 7.922 33.903 2.041 41.825-13.136l.036-.068h-.001c4.87-9.266 4.582-19.872.16-28.536-.4-.784-1.52-.785-1.926-.005z"/></g></g></g></svg>