<svg xmlns="http://www.w3.org/2000/svg" width="63" height="72" viewBox="0 0 63 72"><g><g opacity="1"><g><g opacity="1"><path fill="#6dc720" d="M11.862 23.853l-9.007-8.08a1.25 1.25 0 0 1 1.554-1.959l6.925 6.429L25.041.623a1.25 1.25 0 0 1 2.05 1.432z"/></g></g><g><g opacity="1"><g><g opacity="1"><path fill="#fff" d="M26.028 32.283c-.657-3.288-3.653-5.7-7.014-5.7-3.434 0-6.43 2.412-7.015 5.846-.072.73.366 1.461 1.096 1.607h.22c.657 0 1.168-.438 1.315-1.096.438-2.119 2.265-3.653 4.384-3.653s3.946 1.534 4.384 3.58c.146.731.877 1.17 1.607 1.023.731-.146 1.17-.877 1.023-1.607z"/></g></g></g><g opacity="1"><g><g opacity="1"><path fill="#fff" d="M50.652 32.283c-.657-3.288-3.653-5.7-7.014-5.7-3.434 0-6.43 2.412-7.015 5.846-.073.73.366 1.461 1.096 1.607h.22c.657 0 1.169-.438 1.315-1.096.438-2.119 2.265-3.653 4.384-3.653s3.946 1.534 4.384 3.58c.146.731.877 1.17 1.607 1.023.731-.146 1.17-.877 1.023-1.607z"/></g></g></g><g opacity="1"><g><g opacity="1"><path fill="#fff" d="M50.36 42.658c-.804-.219-1.68.293-1.9 1.096-1.607 5.992-8.768 10.376-17.024 10.376-8.257 0-15.418-4.384-17.025-10.376a1.547 1.547 0 0 0-1.9-1.096 1.547 1.547 0 0 0-1.096 1.9C13.388 51.865 21.79 57.2 31.362 57.2c9.645 0 18.048-5.334 19.948-12.64.365-.805-.146-1.681-.95-1.9z"/></g></g></g><g opacity="1"><g><path fill="#fff" d="M31.509 8.39c-.163 0-.326 0-.489.003-1.261.02-1.821 1.592-.848 2.395.245.203.555.316.874.31.154-.003.308-.005.463-.005 16.009 0 28.918 13.063 28.787 29.028a28.713 28.713 0 0 1-28.914 28.55C15.512 68.6 2.72 55.694 2.72 39.88c0-4.024.827-7.852 2.317-11.327a1.35 1.35 0 0 0-1.081-1.87 1.348 1.348 0 0 0-1.402.8 31.373 31.373 0 0 0-2.538 12.34c-.03 17.337 14.119 31.53 31.455 31.55 17.407.02 31.53-14.09 31.53-31.492C63 22.492 48.899 8.39 31.509 8.39z"/></g></g></g></g></g></svg>